<?xml version="1.0" encoding="UTF-8"?>
<svg version="1.1" xmlns="http://www.w3.org/2000/svg" width="512" height="512">
<path d="M0 0 C31.68 0 63.36 0 96 0 C96 5.28 96 10.56 96 16 C101.28 16 106.56 16 112 16 C112 21.28 112 26.56 112 32 C117.28 32 122.56 32 128 32 C128 37.28 128 42.56 128 48 C133.28 48 138.56 48 144 48 C144 58.56 144 69.12 144 80 C159.84 80 175.68 80 192 80 C192 85.28 192 90.56 192 96 C228.96 96 265.92 96 304 96 C304 101.28 304 106.56 304 112 C309.28 112 314.56 112 320 112 C320 117.28 320 122.56 320 128 C314.72 128 309.44 128 304 128 C304 133.28 304 138.56 304 144 C293.44 144 282.88 144 272 144 C272 149.28 272 154.56 272 160 C261.44 160 250.88 160 240 160 C240 170.56 240 181.12 240 192 C245.28 192 250.56 192 256 192 C256 218.4 256 244.8 256 272 C250.72 272 245.44 272 240 272 C240 282.56 240 293.12 240 304 C234.72 304 229.44 304 224 304 C224 314.56 224 325.12 224 336 C218.72 336 213.44 336 208 336 C208 341.28 208 346.56 208 352 C213.28 352 218.56 352 224 352 C224 357.28 224 362.56 224 368 C229.28 368 234.56 368 240 368 C240 373.28 240 378.56 240 384 C245.28 384 250.56 384 256 384 C256 389.28 256 394.56 256 400 C250.72 400 245.44 400 240 400 C240 405.28 240 410.56 240 416 C234.72 416 229.44 416 224 416 C224 421.28 224 426.56 224 432 C208.16 432 192.32 432 176 432 C176 437.28 176 442.56 176 448 C170.72 448 165.44 448 160 448 C160 453.28 160 458.56 160 464 C149.44 464 138.88 464 128 464 C128 453.44 128 442.88 128 432 C91.04 432 54.08 432 16 432 C16 437.28 16 442.56 16 448 C10.72 448 5.44 448 0 448 C0 453.28 0 458.56 0 464 C-10.56 464 -21.12 464 -32 464 C-32 453.44 -32 442.88 -32 432 C-58.4 432 -84.8 432 -112 432 C-112 426.72 -112 421.44 -112 416 C-117.28 416 -122.56 416 -128 416 C-128 410.72 -128 405.44 -128 400 C-133.28 400 -138.56 400 -144 400 C-144 394.72 -144 389.44 -144 384 C-138.72 384 -133.44 384 -128 384 C-128 378.72 -128 373.44 -128 368 C-117.44 368 -106.88 368 -96 368 C-96 362.72 -96 357.44 -96 352 C-90.72 352 -85.44 352 -80 352 C-80 346.72 -80 341.44 -80 336 C-90.56 336 -101.12 336 -112 336 C-112 325.44 -112 314.88 -112 304 C-117.28 304 -122.56 304 -128 304 C-128 288.16 -128 272.32 -128 256 C-122.72 256 -117.44 256 -112 256 C-112 261.28 -112 266.56 -112 272 C-106.72 272 -101.44 272 -96 272 C-96 261.44 -96 250.88 -96 240 C-111.84 240 -127.68 240 -144 240 C-144 234.72 -144 229.44 -144 224 C-149.28 224 -154.56 224 -160 224 C-160 213.44 -160 202.88 -160 192 C-149.44 192 -138.88 192 -128 192 C-128 186.72 -128 181.44 -128 176 C-117.44 176 -106.88 176 -96 176 C-96 170.72 -96 165.44 -96 160 C-85.44 160 -74.88 160 -64 160 C-64 154.72 -64 149.44 -64 144 C-58.72 144 -53.44 144 -48 144 C-48 138.72 -48 133.44 -48 128 C-42.72 128 -37.44 128 -32 128 C-32 117.44 -32 106.88 -32 96 C-53.12 96 -74.24 96 -96 96 C-96 85.44 -96 74.88 -96 64 C-90.72 64 -85.44 64 -80 64 C-80 58.72 -80 53.44 -80 48 C-74.72 48 -69.44 48 -64 48 C-64 42.72 -64 37.44 -64 32 C-53.44 32 -42.88 32 -32 32 C-32 26.72 -32 21.44 -32 16 C-21.44 16 -10.88 16 0 16 C0 10.72 0 5.44 0 0 Z " fill="#000000" transform="translate(192,0)"/>
<path d="M0 0 C31.68 0 63.36 0 96 0 C96 5.28 96 10.56 96 16 C101.28 16 106.56 16 112 16 C112 21.28 112 26.56 112 32 C117.28 32 122.56 32 128 32 C128 37.28 128 42.56 128 48 C133.28 48 138.56 48 144 48 C144 69.12 144 90.24 144 112 C180.96 112 217.92 112 256 112 C256 117.28 256 122.56 256 128 C234.88 128 213.76 128 192 128 C192 138.56 192 149.12 192 160 C160.32 160 128.64 160 96 160 C96 165.28 96 170.56 96 176 C127.68 176 159.36 176 192 176 C192 181.28 192 186.56 192 192 C197.28 192 202.56 192 208 192 C208 218.4 208 244.8 208 272 C134.08 272 60.16 272 -16 272 C-16 256.16 -16 240.32 -16 224 C-10.72 224 -5.44 224 0 224 C0 213.44 0 202.88 0 192 C-5.28 192 -10.56 192 -16 192 C-16 197.28 -16 202.56 -16 208 C-42.4 208 -68.8 208 -96 208 C-96 213.28 -96 218.56 -96 224 C-117.12 224 -138.24 224 -160 224 C-160 213.44 -160 202.88 -160 192 C-149.44 192 -138.88 192 -128 192 C-128 186.72 -128 181.44 -128 176 C-117.44 176 -106.88 176 -96 176 C-96 170.72 -96 165.44 -96 160 C-85.44 160 -74.88 160 -64 160 C-64 154.72 -64 149.44 -64 144 C-58.72 144 -53.44 144 -48 144 C-48 138.72 -48 133.44 -48 128 C-42.72 128 -37.44 128 -32 128 C-32 117.44 -32 106.88 -32 96 C-53.12 96 -74.24 96 -96 96 C-96 85.44 -96 74.88 -96 64 C-90.72 64 -85.44 64 -80 64 C-80 58.72 -80 53.44 -80 48 C-74.72 48 -69.44 48 -64 48 C-64 42.72 -64 37.44 -64 32 C-53.44 32 -42.88 32 -32 32 C-32 26.72 -32 21.44 -32 16 C-21.44 16 -10.88 16 0 16 C0 10.72 0 5.44 0 0 Z " fill="#4F2606" transform="translate(192,0)"/>
<path d="M0 0 C42.24 0 84.48 0 128 0 C128 10.56 128 21.12 128 32 C133.28 32 138.56 32 144 32 C144 21.44 144 10.88 144 0 C154.56 0 165.12 0 176 0 C176 10.56 176 21.12 176 32 C181.28 32 186.56 32 192 32 C192 21.44 192 10.88 192 0 C223.68 0 255.36 0 288 0 C288 5.28 288 10.56 288 16 C293.28 16 298.56 16 304 16 C304 21.28 304 26.56 304 32 C309.28 32 314.56 32 320 32 C320 37.28 320 42.56 320 48 C314.72 48 309.44 48 304 48 C304 53.28 304 58.56 304 64 C298.72 64 293.44 64 288 64 C288 69.28 288 74.56 288 80 C272.16 80 256.32 80 240 80 C240 85.28 240 90.56 240 96 C234.72 96 229.44 96 224 96 C224 101.28 224 106.56 224 112 C213.44 112 202.88 112 192 112 C192 101.44 192 90.88 192 80 C155.04 80 118.08 80 80 80 C80 85.28 80 90.56 80 96 C74.72 96 69.44 96 64 96 C64 101.28 64 106.56 64 112 C53.44 112 42.88 112 32 112 C32 101.44 32 90.88 32 80 C5.6 80 -20.8 80 -48 80 C-48 74.72 -48 69.44 -48 64 C-53.28 64 -58.56 64 -64 64 C-64 58.72 -64 53.44 -64 48 C-69.28 48 -74.56 48 -80 48 C-80 42.72 -80 37.44 -80 32 C-74.72 32 -69.44 32 -64 32 C-64 26.72 -64 21.44 -64 16 C-42.88 16 -21.76 16 0 16 C0 10.72 0 5.44 0 0 Z " fill="#4F2606" transform="translate(128,352)"/>
<path d="M0 0 C21.12 0 42.24 0 64 0 C64 5.28 64 10.56 64 16 C69.28 16 74.56 16 80 16 C80 21.28 80 26.56 80 32 C85.28 32 90.56 32 96 32 C96 37.28 96 42.56 96 48 C101.28 48 106.56 48 112 48 C112 58.56 112 69.12 112 80 C148.96 80 185.92 80 224 80 C224 85.28 224 90.56 224 96 C202.88 96 181.76 96 160 96 C160 101.28 160 106.56 160 112 C123.04 112 86.08 112 48 112 C48 117.28 48 122.56 48 128 C16.32 128 -15.36 128 -48 128 C-48 117.44 -48 106.88 -48 96 C-42.72 96 -37.44 96 -32 96 C-32 90.72 -32 85.44 -32 80 C-26.72 80 -21.44 80 -16 80 C-16 74.72 -16 69.44 -16 64 C-10.72 64 -5.44 64 0 64 C0 53.44 0 42.88 0 32 C-5.28 32 -10.56 32 -16 32 C-16 26.72 -16 21.44 -16 16 C-10.72 16 -5.44 16 0 16 C0 10.72 0 5.44 0 0 Z " fill="#923B0C" transform="translate(224,32)"/>
<path d="M0 0 C68.64 0 137.28 0 208 0 C208 21.12 208 42.24 208 64 C134.08 64 60.16 64 -16 64 C-16 48.16 -16 32.32 -16 16 C-10.72 16 -5.44 16 0 16 C0 10.72 0 5.44 0 0 Z " fill="#FDBB70" transform="translate(192,208)"/>
<path d="M0 0 C15.84 0 31.68 0 48 0 C48 5.28 48 10.56 48 16 C84.96 16 121.92 16 160 16 C160 21.28 160 26.56 160 32 C165.28 32 170.56 32 176 32 C176 37.28 176 42.56 176 48 C170.72 48 165.44 48 160 48 C160 53.28 160 58.56 160 64 C149.44 64 138.88 64 128 64 C128 69.28 128 74.56 128 80 C117.44 80 106.88 80 96 80 C96 90.56 96 101.12 96 112 C101.28 112 106.56 112 112 112 C112 138.4 112 164.8 112 192 C101.44 192 90.88 192 80 192 C80 165.6 80 139.2 80 112 C69.44 112 58.88 112 48 112 C48 106.72 48 101.44 48 96 C16.32 96 -15.36 96 -48 96 C-48 90.72 -48 85.44 -48 80 C-16.32 80 15.36 80 48 80 C48 69.44 48 58.88 48 48 C69.12 48 90.24 48 112 48 C112 42.72 112 37.44 112 32 C75.04 32 38.08 32 0 32 C0 21.44 0 10.88 0 0 Z " fill="#000000" transform="translate(336,80)"/>
<path d="M0 0 C31.68 0 63.36 0 96 0 C96 5.28 96 10.56 96 16 C101.28 16 106.56 16 112 16 C112 21.28 112 26.56 112 32 C117.28 32 122.56 32 128 32 C128 37.28 128 42.56 128 48 C133.28 48 138.56 48 144 48 C144 58.56 144 69.12 144 80 C138.72 80 133.44 80 128 80 C128 74.72 128 69.44 128 64 C122.72 64 117.44 64 112 64 C112 58.72 112 53.44 112 48 C106.72 48 101.44 48 96 48 C96 42.72 96 37.44 96 32 C74.88 32 53.76 32 32 32 C32 37.28 32 42.56 32 48 C26.72 48 21.44 48 16 48 C16 53.28 16 58.56 16 64 C21.28 64 26.56 64 32 64 C32 74.56 32 85.12 32 96 C26.72 96 21.44 96 16 96 C16 101.28 16 106.56 16 112 C10.72 112 5.44 112 0 112 C0 117.28 0 122.56 0 128 C-5.28 128 -10.56 128 -16 128 C-16 112.16 -16 96.32 -16 80 C-37.12 80 -58.24 80 -80 80 C-80 69.44 -80 58.88 -80 48 C-74.72 48 -69.44 48 -64 48 C-64 42.72 -64 37.44 -64 32 C-53.44 32 -42.88 32 -32 32 C-32 26.72 -32 21.44 -32 16 C-21.44 16 -10.88 16 0 16 C0 10.72 0 5.44 0 0 Z " fill="#4F2606" transform="translate(192,0)"/>
<path d="M0 0 C42.24 0 84.48 0 128 0 C128 10.56 128 21.12 128 32 C122.72 32 117.44 32 112 32 C112 37.28 112 42.56 112 48 C106.72 48 101.44 48 96 48 C96 53.28 96 58.56 96 64 C43.2 64 -9.6 64 -64 64 C-64 58.72 -64 53.44 -64 48 C-69.28 48 -74.56 48 -80 48 C-80 42.72 -80 37.44 -80 32 C-74.72 32 -69.44 32 -64 32 C-64 26.72 -64 21.44 -64 16 C-42.88 16 -21.76 16 0 16 C0 10.72 0 5.44 0 0 Z " fill="#4F2606" transform="translate(128,352)"/>
<path d="M0 0 C5.28 0 10.56 0 16 0 C16 5.28 16 10.56 16 16 C47.68 16 79.36 16 112 16 C112 10.72 112 5.44 112 0 C117.28 0 122.56 0 128 0 C128 5.28 128 10.56 128 16 C149.12 16 170.24 16 192 16 C192 21.28 192 26.56 192 32 C176.16 32 160.32 32 144 32 C144 37.28 144 42.56 144 48 C138.72 48 133.44 48 128 48 C128 53.28 128 58.56 128 64 C117.44 64 106.88 64 96 64 C96 53.44 96 42.88 96 32 C59.04 32 22.08 32 -16 32 C-16 37.28 -16 42.56 -16 48 C-21.28 48 -26.56 48 -32 48 C-32 53.28 -32 58.56 -32 64 C-42.56 64 -53.12 64 -64 64 C-64 53.44 -64 42.88 -64 32 C-90.4 32 -116.8 32 -144 32 C-144 26.72 -144 21.44 -144 16 C-96.48 16 -48.96 16 0 16 C0 10.72 0 5.44 0 0 Z " fill="#000000" transform="translate(224,400)"/>
<path d="M0 0 C5.28 0 10.56 0 16 0 C16 5.28 16 10.56 16 16 C31.84 16 47.68 16 64 16 C64 10.72 64 5.44 64 0 C69.28 0 74.56 0 80 0 C80 10.56 80 21.12 80 32 C159.2 32 238.4 32 320 32 C320 37.28 320 42.56 320 48 C293.6 48 267.2 48 240 48 C240 58.56 240 69.12 240 80 C234.72 80 229.44 80 224 80 C224 69.44 224 58.88 224 48 C213.44 48 202.88 48 192 48 C192 58.56 192 69.12 192 80 C186.72 80 181.44 80 176 80 C176 69.44 176 58.88 176 48 C133.76 48 91.52 48 48 48 C48 53.28 48 58.56 48 64 C37.44 64 26.88 64 16 64 C16 58.72 16 53.44 16 48 C21.28 48 26.56 48 32 48 C32 42.72 32 37.44 32 32 C21.44 32 10.88 32 0 32 C0 21.44 0 10.88 0 0 Z " fill="#000000" transform="translate(80,304)"/>
<path d="M0 0 C79.2 0 158.4 0 240 0 C240 10.56 240 21.12 240 32 C160.8 32 81.6 32 0 32 C0 21.44 0 10.88 0 0 Z " fill="#7E062B" transform="translate(160,304)"/>
<path d="M0 0 C15.84 0 31.68 0 48 0 C48 15.84 48 31.68 48 48 C37.44 48 26.88 48 16 48 C16 58.56 16 69.12 16 80 C21.28 80 26.56 80 32 80 C32 85.28 32 90.56 32 96 C16.16 96 0.32 96 -16 96 C-16 90.72 -16 85.44 -16 80 C-26.56 80 -37.12 80 -48 80 C-48 64.16 -48 48.32 -48 32 C-42.72 32 -37.44 32 -32 32 C-32 37.28 -32 42.56 -32 48 C-21.44 48 -10.88 48 0 48 C0 32.16 0 16.32 0 0 Z " fill="#7E062B" transform="translate(112,224)"/>
<path d="M0 0 C10.56 0 21.12 0 32 0 C32 10.56 32 21.12 32 32 C37.28 32 42.56 32 48 32 C48 21.44 48 10.88 48 0 C53.28 0 58.56 0 64 0 C64 10.56 64 21.12 64 32 C69.28 32 74.56 32 80 32 C80 37.28 80 42.56 80 48 C74.72 48 69.44 48 64 48 C64 53.28 64 58.56 64 64 C32.32 64 0.64 64 -32 64 C-32 53.44 -32 42.88 -32 32 C-21.44 32 -10.88 32 0 32 C0 21.44 0 10.88 0 0 Z " fill="#2B2627" transform="translate(272,352)"/>
<path d="M0 0 C26.4 0 52.8 0 80 0 C80 10.56 80 21.12 80 32 C74.72 32 69.44 32 64 32 C64 37.28 64 42.56 64 48 C27.04 48 -9.92 48 -48 48 C-48 42.72 -48 37.44 -48 32 C-42.72 32 -37.44 32 -32 32 C-32 26.72 -32 21.44 -32 16 C-21.44 16 -10.88 16 0 16 C0 10.72 0 5.44 0 0 Z " fill="#923B0C" transform="translate(176,352)"/>
<path d="M0 0 C89.76 0 179.52 0 272 0 C272 15.84 272 31.68 272 48 C266.72 48 261.44 48 256 48 C256 37.44 256 26.88 256 16 C171.52 16 87.04 16 0 16 C0 10.72 0 5.44 0 0 Z " fill="#4F2606" transform="translate(144,288)"/>
<path d="M0 0 C31.68 0 63.36 0 96 0 C96 5.28 96 10.56 96 16 C101.28 16 106.56 16 112 16 C112 21.28 112 26.56 112 32 C43.36 32 -25.28 32 -96 32 C-96 26.72 -96 21.44 -96 16 C-64.32 16 -32.64 16 0 16 C0 10.72 0 5.44 0 0 Z " fill="#965837" transform="translate(288,176)"/>
<path d="M0 0 C31.68 0 63.36 0 96 0 C96 5.28 96 10.56 96 16 C101.28 16 106.56 16 112 16 C112 21.28 112 26.56 112 32 C117.28 32 122.56 32 128 32 C128 37.28 128 42.56 128 48 C133.28 48 138.56 48 144 48 C144 58.56 144 69.12 144 80 C138.72 80 133.44 80 128 80 C128 74.72 128 69.44 128 64 C122.72 64 117.44 64 112 64 C112 58.72 112 53.44 112 48 C106.72 48 101.44 48 96 48 C96 42.72 96 37.44 96 32 C90.72 32 85.44 32 80 32 C80 26.72 80 21.44 80 16 C58.88 16 37.76 16 16 16 C16 21.28 16 26.56 16 32 C5.44 32 -5.12 32 -16 32 C-16 37.28 -16 42.56 -16 48 C-31.84 48 -47.68 48 -64 48 C-64 42.72 -64 37.44 -64 32 C-53.44 32 -42.88 32 -32 32 C-32 26.72 -32 21.44 -32 16 C-21.44 16 -10.88 16 0 16 C0 10.72 0 5.44 0 0 Z " fill="#000000" transform="translate(192,0)"/>
<path d="M0 0 C15.84 0 31.68 0 48 0 C48 5.28 48 10.56 48 16 C84.96 16 121.92 16 160 16 C160 21.28 160 26.56 160 32 C107.2 32 54.4 32 0 32 C0 21.44 0 10.88 0 0 Z " fill="#000000" transform="translate(336,80)"/>
<path d="M0 0 C21.12 0 42.24 0 64 0 C64 15.84 64 31.68 64 48 C48.16 48 32.32 48 16 48 C16 42.72 16 37.44 16 32 C10.72 32 5.44 32 0 32 C0 21.44 0 10.88 0 0 Z " fill="#923B0C" transform="translate(336,352)"/>
<path d="M0 0 C21.12 0 42.24 0 64 0 C64 5.28 64 10.56 64 16 C58.72 16 53.44 16 48 16 C48 21.28 48 26.56 48 32 C11.04 32 -25.92 32 -64 32 C-64 26.72 -64 21.44 -64 16 C-42.88 16 -21.76 16 0 16 C0 10.72 0 5.44 0 0 Z " fill="#4F2606" transform="translate(448,112)"/>
<path d="M0 0 C5.28 0 10.56 0 16 0 C16 5.28 16 10.56 16 16 C37.12 16 58.24 16 80 16 C80 31.84 80 47.68 80 64 C74.72 64 69.44 64 64 64 C64 53.44 64 42.88 64 32 C42.88 32 21.76 32 0 32 C0 21.44 0 10.88 0 0 Z " fill="#000000" transform="translate(96,64)"/>
<path d="M0 0 C31.68 0 63.36 0 96 0 C96 5.28 96 10.56 96 16 C64.32 16 32.64 16 0 16 C0 10.72 0 5.44 0 0 Z " fill="#000000" transform="translate(192,176)"/>
<path d="M0 0 C5.28 0 10.56 0 16 0 C16 10.56 16 21.12 16 32 C10.72 32 5.44 32 0 32 C0 37.28 0 42.56 0 48 C-15.84 48 -31.68 48 -48 48 C-48 42.72 -48 37.44 -48 32 C-37.44 32 -26.88 32 -16 32 C-16 26.72 -16 21.44 -16 16 C-10.72 16 -5.44 16 0 16 C0 10.72 0 5.44 0 0 Z " fill="#000000" transform="translate(144,128)"/>
<path d="M0 0 C15.84 0 31.68 0 48 0 C48 10.56 48 21.12 48 32 C32.16 32 16.32 32 0 32 C0 21.44 0 10.88 0 0 Z " fill="#4F2606" transform="translate(336,80)"/>
<path d="M0 0 C5.28 0 10.56 0 16 0 C16 26.4 16 52.8 16 80 C10.72 80 5.44 80 0 80 C0 53.6 0 27.2 0 0 Z " fill="#000000" transform="translate(432,192)"/>
<path d="M0 0 C5.28 0 10.56 0 16 0 C16 26.4 16 52.8 16 80 C10.72 80 5.44 80 0 80 C0 53.6 0 27.2 0 0 Z " fill="#7E062B" transform="translate(416,192)"/>
<path d="M0 0 C10.56 0 21.12 0 32 0 C32 10.56 32 21.12 32 32 C21.44 32 10.88 32 0 32 C0 21.44 0 10.88 0 0 Z " fill="#1E1A1B" transform="translate(240,384)"/>
<path d="M0 0 C10.56 0 21.12 0 32 0 C32 10.56 32 21.12 32 32 C21.44 32 10.88 32 0 32 C0 21.44 0 10.88 0 0 Z " fill="#1E1A1B" transform="translate(272,352)"/>
<path d="M0 0 C5.28 0 10.56 0 16 0 C16 5.28 16 10.56 16 16 C21.28 16 26.56 16 32 16 C32 21.28 32 26.56 32 32 C26.72 32 21.44 32 16 32 C16 37.28 16 42.56 16 48 C10.72 48 5.44 48 0 48 C0 32.16 0 16.32 0 0 Z " fill="#7E062B" transform="translate(64,256)"/>
<path d="M0 0 C10.56 0 21.12 0 32 0 C32 10.56 32 21.12 32 32 C21.44 32 10.88 32 0 32 C0 21.44 0 10.88 0 0 Z " fill="#CC3967" transform="translate(128,240)"/>
<path d="M0 0 C5.28 0 10.56 0 16 0 C16 10.56 16 21.12 16 32 C21.28 32 26.56 32 32 32 C32 37.28 32 42.56 32 48 C21.44 48 10.88 48 0 48 C0 32.16 0 16.32 0 0 Z " fill="#965837" transform="translate(176,224)"/>
<path d="M0 0 C15.84 0 31.68 0 48 0 C48 5.28 48 10.56 48 16 C32.16 16 16.32 16 0 16 C0 10.72 0 5.44 0 0 Z " fill="#7E062B" transform="translate(192,192)"/>
<path d="M0 0 C10.56 0 21.12 0 32 0 C32 5.28 32 10.56 32 16 C26.72 16 21.44 16 16 16 C16 21.28 16 26.56 16 32 C10.72 32 5.44 32 0 32 C0 21.44 0 10.88 0 0 Z " fill="#000000" transform="translate(32,192)"/>
<path d="M0 0 C15.84 0 31.68 0 48 0 C48 5.28 48 10.56 48 16 C32.16 16 16.32 16 0 16 C0 10.72 0 5.44 0 0 Z " fill="#000000" transform="translate(336,80)"/>
<path d="M0 0 C10.56 0 21.12 0 32 0 C32 5.28 32 10.56 32 16 C21.44 16 10.88 16 0 16 C0 10.72 0 5.44 0 0 Z " fill="#000000" transform="translate(64,368)"/>
<path d="M0 0 C5.28 0 10.56 0 16 0 C16 10.56 16 21.12 16 32 C10.72 32 5.44 32 0 32 C0 21.44 0 10.88 0 0 Z " fill="#4F2606" transform="translate(320,352)"/>
<path d="M0 0 C5.28 0 10.56 0 16 0 C16 10.56 16 21.12 16 32 C10.72 32 5.44 32 0 32 C0 21.44 0 10.88 0 0 Z " fill="#000000" transform="translate(400,304)"/>
<path d="M0 0 C5.28 0 10.56 0 16 0 C16 10.56 16 21.12 16 32 C10.72 32 5.44 32 0 32 C0 21.44 0 10.88 0 0 Z " fill="#000000" transform="translate(368,224)"/>
<path d="M0 0 C5.28 0 10.56 0 16 0 C16 10.56 16 21.12 16 32 C10.72 32 5.44 32 0 32 C0 21.44 0 10.88 0 0 Z " fill="#000000" transform="translate(224,224)"/>
<path d="M0 0 C10.56 0 21.12 0 32 0 C32 5.28 32 10.56 32 16 C21.44 16 10.88 16 0 16 C0 10.72 0 5.44 0 0 Z " fill="#7E062B" transform="translate(368,192)"/>
<path d="M0 0 C10.56 0 21.12 0 32 0 C32 5.28 32 10.56 32 16 C21.44 16 10.88 16 0 16 C0 10.72 0 5.44 0 0 Z " fill="#000000" transform="translate(64,176)"/>
<path d="M0 0 C5.28 0 10.56 0 16 0 C16 10.56 16 21.12 16 32 C10.72 32 5.44 32 0 32 C0 21.44 0 10.88 0 0 Z " fill="#7E062B" transform="translate(400,160)"/>
<path d="M0 0 C10.56 0 21.12 0 32 0 C32 5.28 32 10.56 32 16 C21.44 16 10.88 16 0 16 C0 10.72 0 5.44 0 0 Z " fill="#000000" transform="translate(464,128)"/>
<path d="M0 0 C5.28 0 10.56 0 16 0 C16 5.28 16 10.56 16 16 C10.72 16 5.44 16 0 16 C0 10.72 0 5.44 0 0 Z " fill="#000000" transform="translate(416,400)"/>
<path d="M0 0 C5.28 0 10.56 0 16 0 C16 5.28 16 10.56 16 16 C10.72 16 5.44 16 0 16 C0 10.72 0 5.44 0 0 Z " fill="#000000" transform="translate(64,400)"/>
<path d="M0 0 C5.28 0 10.56 0 16 0 C16 5.28 16 10.56 16 16 C10.72 16 5.44 16 0 16 C0 10.72 0 5.44 0 0 Z " fill="#000000" transform="translate(432,384)"/>
<path d="M0 0 C5.28 0 10.56 0 16 0 C16 5.28 16 10.56 16 16 C10.72 16 5.44 16 0 16 C0 10.72 0 5.44 0 0 Z " fill="#4F2606" transform="translate(336,384)"/>
<path d="M0 0 C5.28 0 10.56 0 16 0 C16 5.28 16 10.56 16 16 C10.72 16 5.44 16 0 16 C0 10.72 0 5.44 0 0 Z " fill="#000000" transform="translate(320,384)"/>
<path d="M0 0 C5.28 0 10.56 0 16 0 C16 5.28 16 10.56 16 16 C10.72 16 5.44 16 0 16 C0 10.72 0 5.44 0 0 Z " fill="#000000" transform="translate(240,384)"/>
<path d="M0 0 C5.28 0 10.56 0 16 0 C16 5.28 16 10.56 16 16 C10.72 16 5.44 16 0 16 C0 10.72 0 5.44 0 0 Z " fill="#000000" transform="translate(48,384)"/>
<path d="M0 0 C5.28 0 10.56 0 16 0 C16 5.28 16 10.56 16 16 C10.72 16 5.44 16 0 16 C0 10.72 0 5.44 0 0 Z " fill="#000000" transform="translate(416,368)"/>
<path d="M0 0 C5.28 0 10.56 0 16 0 C16 5.28 16 10.56 16 16 C10.72 16 5.44 16 0 16 C0 10.72 0 5.44 0 0 Z " fill="#000000" transform="translate(400,352)"/>
<path d="M0 0 C5.28 0 10.56 0 16 0 C16 5.28 16 10.56 16 16 C10.72 16 5.44 16 0 16 C0 10.72 0 5.44 0 0 Z " fill="#4F2606" transform="translate(384,352)"/>
<path d="M0 0 C5.28 0 10.56 0 16 0 C16 5.28 16 10.56 16 16 C10.72 16 5.44 16 0 16 C0 10.72 0 5.44 0 0 Z " fill="#000000" transform="translate(64,288)"/>
<path d="M0 0 C5.28 0 10.56 0 16 0 C16 5.28 16 10.56 16 16 C10.72 16 5.44 16 0 16 C0 10.72 0 5.44 0 0 Z " fill="#000000" transform="translate(80,272)"/>
<path d="M0 0 C5.28 0 10.56 0 16 0 C16 5.28 16 10.56 16 16 C10.72 16 5.44 16 0 16 C0 10.72 0 5.44 0 0 Z " fill="#000000" transform="translate(64,256)"/>
<path d="M0 0 C5.28 0 10.56 0 16 0 C16 5.28 16 10.56 16 16 C10.72 16 5.44 16 0 16 C0 10.72 0 5.44 0 0 Z " fill="#965837" transform="translate(192,192)"/>
<path d="M0 0 C5.28 0 10.56 0 16 0 C16 5.28 16 10.56 16 16 C10.72 16 5.44 16 0 16 C0 10.72 0 5.44 0 0 Z " fill="#7E4A2E" transform="translate(368,176)"/>
<path d="M0 0 C5.28 0 10.56 0 16 0 C16 5.28 16 10.56 16 16 C10.72 16 5.44 16 0 16 C0 10.72 0 5.44 0 0 Z " fill="#000000" transform="translate(496,112)"/>
<path d="M0 0 C5.28 0 10.56 0 16 0 C16 5.28 16 10.56 16 16 C10.72 16 5.44 16 0 16 C0 10.72 0 5.44 0 0 Z " fill="#4F2606" transform="translate(320,80)"/>
<path d="M0 0 C5.28 0 10.56 0 16 0 C16 5.28 16 10.56 16 16 C10.72 16 5.44 16 0 16 C0 10.72 0 5.44 0 0 Z " fill="#4F2606" transform="translate(304,64)"/>
<path d="M0 0 C5.28 0 10.56 0 16 0 C16 5.28 16 10.56 16 16 C10.72 16 5.44 16 0 16 C0 10.72 0 5.44 0 0 Z " fill="#4F2606" transform="translate(288,48)"/>
<path d="M0 0 C5.28 0 10.56 0 16 0 C16 5.28 16 10.56 16 16 C10.72 16 5.44 16 0 16 C0 10.72 0 5.44 0 0 Z " fill="#000000" transform="translate(112,48)"/>
<path d="M0 0 C5.28 0 10.56 0 16 0 C16 5.28 16 10.56 16 16 C10.72 16 5.44 16 0 16 C0 10.72 0 5.44 0 0 Z " fill="#4F2606" transform="translate(272,32)"/>
</svg>
